<svg width="850" height="787" viewBox="0 0 850 787" fill="none" xmlns="http://www.w3.org/2000/svg">
<g clip-path="url(#clip0)">
<path opacity="0.24" d="M839.303 447.531C810.578 522.068 732.782 564.876 689.36 631.777C684.599 638.966 680.425 646.474 676.331 653.982C667.269 670.391 658.778 687.088 647.764 702.169C611.961 751.364 552.034 778.644 491.917 785.223C431.8 791.803 371.128 779.652 313.059 762.507C266.717 748.803 218.265 729.592 190.857 689.474C181.493 675.834 174.986 660.305 164.623 647.482C158.008 639.666 150.556 632.612 142.405 626.447C140.056 624.573 137.755 622.764 135.406 620.939C100.904 594.221 65.9096 567.133 39.3585 532.33C12.8074 497.526 -4.68173 453.486 1.07921 409.99C6.72905 367.614 33.4706 331.017 63.9258 301.289C94.381 271.56 129.439 246.858 158.672 215.929C217.297 153.974 252.402 67.6702 325.31 23.6776C413.343 -29.5042 541.639 15.6731 616.214 72.6169C676.823 118.803 724.783 179.381 774.79 237.013C798.485 264.372 823.179 291.908 837.32 325.318C853.557 364.278 854.267 408.055 839.303 447.531Z" fill="#6320EF"/>
<path opacity="0.24" d="M676.331 653.982C667.269 670.391 658.778 687.088 647.764 702.169C611.961 751.364 552.034 778.643 491.917 785.223C431.8 791.803 371.128 779.652 313.058 762.506C266.717 748.803 218.265 729.592 190.857 689.474C181.493 675.834 174.986 660.305 164.623 647.482C158.008 639.666 150.556 632.611 142.405 626.446C173.86 617.385 207.235 613.943 239.991 610.613C321.882 602.353 404.329 594.092 486.474 600.288C533.894 603.922 633.401 609.813 676.331 653.982Z" fill="#6320EF"/>
<path d="M827.099 86.3203H608.167V412.871H827.099V86.3203Z" fill="#6320EF"/>
<path d="M531.895 284.239L595.948 268.39L482.411 506.843L449.797 447.53L531.895 284.239Z" fill="#6320EF"/>
<path d="M531.895 284.239L595.948 268.39L482.411 506.843L449.797 447.53L531.895 284.239Z" fill="url(#paint0_linear)"/>
<path d="M520.833 306.571L559.271 302.457L484.157 466.901L462.033 428.143L520.833 306.571Z" fill="white"/>
<path opacity="0.24" d="M518.23 387.385C512.12 388.681 505.248 390.586 502.36 396.125C500.868 399.055 500.773 402.529 500.249 405.731C499.495 410.226 497.784 414.502 495.234 418.266L484.204 398.687C483.667 397.888 483.324 396.972 483.205 396.013C483.329 394.646 483.885 393.355 484.792 392.331C490.303 384.395 494.899 375.85 498.488 366.861C501.408 359.529 502.519 351.509 507.931 345.521C510.692 342.464 516.993 336.46 521.658 337.181C528.26 338.189 523.341 348.483 522.42 352.581C521.722 355.575 517.945 387.449 518.23 387.385Z" fill="#6320EF"/>
<path d="M520.896 367.197C520.04 370.987 518.6 374.617 516.627 377.955C507.645 395.149 480.126 474.377 475.571 492.755C473.206 488.273 465.557 474.025 463.176 469.542C461.589 466.661 460.081 463.587 460.224 460.321C460.492 457.905 461.231 455.565 462.398 453.437C467.35 442.775 472.381 432.017 479.459 422.652C484.442 416.041 483.712 409.125 488.807 402.593C497.773 391.131 504.979 379.252 509.184 365.308C509.851 363.115 524.071 352.693 527.594 353.926C530.197 354.822 521.293 364.844 520.896 367.197Z" fill="url(#paint1_linear)"/>
<path d="M465.525 362.475C464.208 367.277 499.138 360.618 506.788 359.609C513.961 358.665 521.357 357.624 527.61 353.926C526.721 354.454 522.389 352.853 520.944 352.933C517.691 353.077 514.374 353.766 511.121 354.134C504.487 354.822 465.636 358.184 465.525 362.475Z" fill="#6320EF"/>
<path d="M465.525 362.475C464.208 367.277 499.138 360.618 506.788 359.609C513.961 358.665 521.357 357.624 527.61 353.926C526.721 354.454 522.389 352.853 520.944 352.933C517.691 353.077 514.374 353.766 511.121 354.134C504.487 354.822 465.636 358.184 465.525 362.475Z" fill="url(#paint2_linear)"/>
<path d="M379.603 715.136C406.152 715.136 427.674 707.417 427.674 697.894C427.674 688.372 406.152 680.653 379.603 680.653C353.054 680.653 331.531 688.372 331.531 697.894C331.531 707.417 353.054 715.136 379.603 715.136Z" fill="#6320EF"/>
<path opacity="0.65" d="M379.603 708.38C406.152 708.38 427.674 702.173 427.674 694.516C427.674 686.86 406.152 680.653 379.603 680.653C353.054 680.653 331.531 686.86 331.531 694.516C331.531 702.173 353.054 708.38 379.603 708.38Z" fill="url(#paint3_linear)"/>
<path d="M370.763 579.524H386.49V681.277C386.49 683.4 385.654 685.436 384.166 686.937C382.678 688.438 380.66 689.281 378.555 689.281C376.451 689.281 374.432 688.438 372.944 686.937C371.456 685.436 370.62 683.4 370.62 681.277V579.524H370.763Z" fill="#6320EF"/>
<path opacity="0.65" d="M370.763 579.524H386.49V681.277C386.49 683.4 385.654 685.436 384.166 686.937C382.678 688.438 380.66 689.281 378.555 689.281C376.451 689.281 374.432 688.438 372.944 686.937C371.456 685.436 370.62 683.4 370.62 681.277V579.524H370.763Z" fill="url(#paint4_linear)"/>
<path d="M300.156 558.792C300.267 566.557 300.886 574.801 305.536 581.013C311.011 588.281 320.74 590.81 329.786 591.114C334.612 591.401 339.45 590.81 344.069 589.369C348.722 587.913 352.753 584.919 355.512 580.869C349.846 578.003 342.942 580.228 336.785 578.739C333.754 577.876 330.896 576.483 328.342 574.625C318.819 568.302 309.948 558.968 309.408 547.49C309.139 541.711 311.17 535.916 310.186 530.152C309.726 527.431 307.012 521.027 303.314 524.533C300.489 527.191 300.965 537.164 300.68 540.878C300.172 546.834 300.061 552.821 300.156 558.792Z" fill="#6320EF"/>
<path d="M300.156 558.792C300.267 566.557 300.886 574.801 305.536 581.013C311.011 588.281 320.74 590.81 329.786 591.114C334.612 591.401 339.45 590.81 344.069 589.369C348.722 587.913 352.753 584.919 355.512 580.869C349.846 578.003 342.942 580.228 336.785 578.739C333.754 577.876 330.896 576.483 328.342 574.625C318.819 568.302 309.948 558.968 309.408 547.49C309.139 541.711 311.17 535.916 310.186 530.152C309.726 527.431 307.012 521.027 303.314 524.533C300.489 527.191 300.965 537.164 300.68 540.878C300.172 546.834 300.061 552.821 300.156 558.792Z" fill="url(#paint5_linear)"/>
<path d="M354.115 550.132C345.846 550.708 338.054 554.118 333.658 559.113C331.551 561.325 330.192 564.154 329.775 567.194C329.359 570.233 329.907 573.328 331.341 576.034C334.404 581.669 341.228 586.088 349.163 588.553C357.364 590.962 365.892 592.043 374.429 591.755C389.226 591.549 403.878 588.771 417.739 583.542C419.469 582.961 421.109 582.136 422.611 581.093C423.632 580.256 424.516 579.262 425.23 578.147C427.184 575.355 428.738 572.299 429.848 569.07C430.497 567.464 430.726 565.717 430.515 563.995C429.69 559.657 424.246 556.503 418.628 554.662C408.566 551.38 397.171 550.964 386.094 550.596C373.588 550.18 361.034 549.763 348.529 550.436" fill="#606161"/>
<path d="M354.115 550.132C345.846 550.708 338.054 554.118 333.658 559.113C331.551 561.325 330.192 564.154 329.775 567.194C329.359 570.233 329.907 573.328 331.341 576.034C334.404 581.669 341.228 586.088 349.163 588.553C357.364 590.962 365.892 592.043 374.429 591.755C389.226 591.549 403.878 588.771 417.739 583.542C419.469 582.961 421.109 582.136 422.611 581.093C423.632 580.256 424.516 579.262 425.23 578.147C427.184 575.355 428.738 572.299 429.848 569.07C430.497 567.464 430.726 565.717 430.515 563.995C429.69 559.657 424.246 556.503 418.628 554.662C408.566 551.38 397.171 550.964 386.094 550.596C373.588 550.18 361.034 549.763 348.529 550.436" fill="url(#paint6_linear)"/>
<path d="M399.742 653.309C398.696 654.35 397.903 655.622 397.425 657.023C397.124 658.443 397.124 659.91 397.425 661.33C399.695 676.65 410.883 689.025 422.818 698.759C424.849 700.36 427.293 702.105 429.817 701.544C433.308 700.744 434.578 696.341 434.578 692.739C434.784 685.247 433.276 677.835 431.769 670.503C430.372 663.747 430.182 646.842 422.738 643.624C415.295 640.406 404.265 648.235 399.742 653.309Z" fill="#6320EF"/>
<path d="M493.695 704.282C493.797 704.776 494.059 705.221 494.441 705.546C495.03 705.878 495.706 706.018 496.377 705.947C512.866 705.947 530.102 705.867 544.671 699.271C545.877 698.727 547.21 697.91 547.178 696.758C547.146 695.605 545.94 694.901 544.861 694.324C532.609 687.921 519.611 681.517 505.264 679.532C497.948 678.491 494.377 677.819 492.854 684.623C491.384 691.134 491.674 697.923 493.695 704.282Z" fill="#6320EF"/>
<path d="M399.742 653.309C398.696 654.35 397.903 655.622 397.425 657.023C397.124 658.443 397.124 659.91 397.425 661.33C399.695 676.65 410.883 689.025 422.818 698.759C424.849 700.36 427.293 702.105 429.817 701.544C433.308 700.744 434.578 696.341 434.578 692.739C434.784 685.247 433.276 677.835 431.769 670.503C430.372 663.747 430.182 646.842 422.738 643.624C415.295 640.406 404.265 648.235 399.742 653.309Z" fill="url(#paint7_linear)"/>
<path d="M493.695 704.282C493.797 704.776 494.059 705.221 494.441 705.546C495.03 705.878 495.706 706.018 496.377 705.947C512.866 705.947 530.102 705.867 544.671 699.271C545.877 698.727 547.21 697.91 547.178 696.758C547.146 695.605 545.94 694.901 544.861 694.324C532.609 687.921 519.611 681.517 505.264 679.532C497.948 678.491 494.377 677.819 492.854 684.623C491.384 691.134 491.674 697.923 493.695 704.282Z" fill="url(#paint8_linear)"/>
<path d="M508.867 667.685C508.867 672.28 508.867 677.179 506.455 681.037C504.042 684.895 498.075 686.832 494.806 683.646C493.45 682.062 492.531 680.146 492.14 678.091C487.017 659.97 480.757 642.196 473.397 624.877C468.858 614.151 463.875 603.345 462.891 591.739C461.907 580.132 466.065 567.245 476.142 561.434C484.077 556.871 499.837 555.719 506.82 562.923C512.12 568.398 508.486 576.738 507.915 583.382C505.534 610.966 508.454 639.99 508.867 667.685Z" fill="#606161"/>
<path d="M508.867 667.685C508.867 672.28 508.867 677.179 506.455 681.037C504.042 684.895 498.075 686.832 494.806 683.646C493.45 682.062 492.531 680.146 492.14 678.091C487.017 659.97 480.757 642.196 473.397 624.877C468.858 614.151 463.875 603.345 462.891 591.739C461.907 580.132 466.065 567.245 476.142 561.434C484.077 556.871 499.837 555.719 506.82 562.923C512.12 568.398 508.486 576.738 507.915 583.382C505.534 610.966 508.454 639.99 508.867 667.685Z" fill="url(#paint9_linear)"/>
<path d="M385.491 81.1814H245.403V290.13H385.491V81.1814Z" fill="#6320EF"/>
<path d="M385.491 81.1814H245.403V290.13H385.491V81.1814Z" fill="url(#paint10_linear)"/>
<path d="M417.946 316.625C417.009 321.748 416.136 326.951 415.216 332.074C415.141 333.332 414.636 334.526 413.788 335.452C413.22 335.948 412.491 336.216 411.74 336.204C410.658 336.151 409.589 335.941 408.566 335.58C400.377 332.89 392.014 330.137 384.872 325.254C384.086 324.855 383.399 324.282 382.863 323.578C382.327 322.874 381.956 322.057 381.777 321.188C381.827 320.053 382.166 318.95 382.761 317.986C385.808 312.287 394.235 291.507 401.377 289.762C404.551 288.946 407.138 292.644 409.503 297.27C412.169 302.777 414.47 309.661 416.644 312.03C417.267 312.674 417.748 313.444 418.057 314.288C418.162 315.067 418.125 315.859 417.946 316.625Z" fill="url(#paint11_linear)"/>
<path d="M417.946 316.625C417.009 321.748 416.137 326.951 415.216 332.074C415.141 333.332 414.636 334.526 413.788 335.452C413.221 335.948 412.492 336.216 411.74 336.204C408.971 335.243 406.689 333.218 405.392 330.569C404.041 327.649 403.182 324.521 402.853 321.316C401.853 314.176 401.171 306.475 403.028 299.479C403.901 296.15 406.503 296.15 409.376 297.222C412.042 302.729 414.343 309.613 416.517 311.982C417.14 312.626 417.622 313.396 417.93 314.24C418.083 315.027 418.089 315.836 417.946 316.625Z" fill="url(#paint12_linear)"/>
<path d="M374.413 322.548C372.713 322.643 371.069 323.196 369.652 324.149C367.351 326.038 367.129 329.432 366.875 332.41C364.431 361.514 342.308 386.008 339.483 415.08C338.562 424.477 339.737 433.923 340.498 443.336C341.99 461.766 341.943 480.289 340.356 498.711C339.276 511.054 337.594 523.957 342.117 535.531C343.895 540.062 347.545 544.737 352.354 544.448C354.403 544.165 356.366 543.427 358.099 542.287L422.167 506.347C424.691 504.938 427.373 503.337 428.515 500.648C430.483 495.845 426.373 490.898 423.135 486.832C414.615 476.074 410.402 462.485 411.328 448.747C412.455 439.67 414.327 427.551 418.898 424.91C423.469 422.268 428.547 427.855 429.817 422.716C433.356 408.308 434.007 411.814 433.451 395.597C433.013 382.966 431.079 370.432 427.69 358.264C426.511 353.127 424.478 348.228 421.675 343.776C411.058 328.84 392.331 320.131 374.413 322.548Z" fill="#6320EF"/>
<path d="M374.413 322.548C372.713 322.643 371.069 323.196 369.652 324.149C367.351 326.038 367.129 329.432 366.875 332.41C364.431 361.514 342.308 386.008 339.483 415.08C338.562 424.477 339.737 433.923 340.498 443.336C341.99 461.766 341.943 480.289 340.356 498.711C339.276 511.054 337.594 523.957 342.117 535.531C343.895 540.062 347.545 544.737 352.354 544.448C354.403 544.165 356.366 543.427 358.099 542.287L422.167 506.347C424.691 504.938 427.373 503.337 428.515 500.648C430.483 495.845 426.373 490.898 423.135 486.832C414.615 476.074 410.402 462.485 411.328 448.747C414.962 419.627 434.451 418.41 433.943 407.524C433.118 390.138 431.943 372.592 427.008 355.911C425.894 351.601 424.093 347.503 421.675 343.776C411.058 328.84 392.331 320.131 374.413 322.548Z" fill="url(#paint13_linear)"/>
<path d="M494.52 367.373C494.526 366.229 494.67 365.089 494.949 363.979C495.521 362.468 496.415 361.102 497.567 359.977C503.526 353.565 511.274 349.127 519.786 347.25C520.164 347.451 520.496 347.73 520.761 348.069C521.026 348.407 521.217 348.798 521.323 349.216C521.429 349.633 521.448 350.069 521.377 350.494C521.306 350.919 521.148 351.325 520.913 351.685C520.357 352.289 519.758 352.851 519.119 353.366C516.564 355.991 517.977 360.329 517.834 364.012C517.548 371.087 511.216 376.082 506.899 381.621C500.424 390.026 498.012 401.2 491.029 409.157C488.22 412.359 481.507 416.777 477.761 412.198C475 408.805 479.158 403.666 481.078 400.992C488.251 390.634 493.79 380.325 494.52 367.373Z" fill="url(#paint14_linear)"/>
<path d="M518.246 544.24C520.532 545.841 523.007 547.618 523.626 550.308C523.963 552.234 523.726 554.217 522.944 556.007C520.373 563.195 515.294 569.118 510.248 574.769C485.06 602.685 457.08 627.899 426.754 650.011C425.167 651.212 423.167 652.477 421.167 652.044C420.072 651.673 419.134 650.936 418.508 649.956C417.882 648.975 417.606 647.809 417.723 646.649C418.033 644.355 418.864 642.163 420.152 640.246C430.213 622.263 439.54 603.9 448.131 585.159C451.099 578.756 454.019 571.968 454.225 564.844C429.616 563.712 405.032 562.112 380.476 560.041C371.779 559.321 362.193 558.104 356.4 551.508C355.183 550.229 354.333 548.642 353.94 546.914C353.73 544.446 354.285 541.974 355.528 539.838C358.898 532.821 363.764 526.642 369.778 521.743C375.792 516.845 382.805 513.348 390.315 511.502C396.108 510.125 402.17 509.773 407.773 507.74C412.391 506.059 416.581 502.777 421.643 502.521C430.69 502.073 442.275 507.964 450.765 510.782C474.68 518.745 497.388 530.004 518.246 544.24Z" fill="#606161"/>
<path d="M518.246 544.24C520.532 545.841 523.007 547.618 523.626 550.308C523.963 552.234 523.726 554.217 522.944 556.007C520.373 563.195 515.294 569.118 510.248 574.769C485.06 602.685 457.08 627.899 426.754 650.011C425.167 651.212 423.167 652.477 421.167 652.044C420.072 651.673 419.134 650.936 418.508 649.956C417.882 648.975 417.606 647.809 417.723 646.649C418.033 644.355 418.864 642.163 420.152 640.246C430.213 622.263 439.54 603.9 448.131 585.159C451.099 578.756 454.019 571.968 454.225 564.844C429.616 563.712 405.032 562.112 380.476 560.041C371.779 559.321 362.193 558.104 356.4 551.508C355.183 550.229 354.333 548.642 353.94 546.914C353.73 544.446 354.285 541.974 355.528 539.838C358.898 532.821 363.764 526.642 369.778 521.743C375.792 516.845 382.805 513.348 390.315 511.502C396.108 510.125 402.17 509.773 407.773 507.74C412.391 506.059 416.581 502.777 421.643 502.521C430.69 502.073 442.275 507.964 450.765 510.782C474.68 518.745 497.388 530.004 518.246 544.24Z" fill="url(#paint15_linear)"/>
<path d="M315.915 429.856C309.742 430.465 304.377 434.659 300.997 439.942C297.617 445.225 295.966 451.356 294.649 457.456C289.967 479.66 289.586 503.69 299.315 524.149C301.711 529.192 305.219 534.347 310.599 535.676C317.534 537.373 324.295 531.865 327.961 525.67C335.039 513.695 335.214 498.967 335.182 485.023V457.264C335.134 445.385 331.23 428.351 315.915 429.856Z" fill="#606161"/>
<path d="M308.631 458.352C303.965 479.516 305.996 502.521 316.312 521.54C318.375 525.35 321.835 529.544 326.056 528.616C328.391 527.883 330.358 526.272 331.547 524.117C333.903 520.598 335.572 516.659 336.467 512.511C337.189 508.604 337.556 504.638 337.562 500.664C338.149 483.054 338.737 465.316 337.118 447.738C337.037 444.141 336.13 440.612 334.467 437.429C329.611 429.424 322.311 432.306 317.518 438.149C312.725 443.992 310.218 451.18 308.631 458.352Z" fill="#606161"/>
<path d="M308.631 458.352C303.965 479.516 305.996 502.521 316.312 521.54C318.375 525.35 321.835 529.544 326.056 528.616C328.391 527.883 330.358 526.272 331.547 524.117C333.903 520.598 335.572 516.659 336.467 512.511C337.189 508.604 337.556 504.638 337.562 500.664C338.149 483.054 338.737 465.316 337.118 447.738C337.037 444.141 336.13 440.612 334.467 437.429C329.611 429.424 322.311 432.306 317.518 438.149C312.725 443.992 310.218 451.18 308.631 458.352Z" fill="url(#paint16_linear)"/>
<path d="M442.672 384.631C447.814 388.793 454.305 391.963 460.843 391.035C467.636 390.074 473.539 384.855 480.38 384.951C480.07 390.584 478.356 396.046 475.396 400.832C471.794 406.643 466.525 411.19 461.335 415.64L449.496 425.774C447.814 427.215 445.814 428.752 443.64 428.399C442.535 428.144 441.52 427.591 440.704 426.799C436.054 422.828 434.086 416.585 432.403 410.678C430.975 405.619 429.594 400.56 428.214 395.485C427.405 392.966 426.93 390.35 426.801 387.705C426.801 383.767 427.817 375.65 429.801 372.72C434.562 375.986 438.164 381.013 442.672 384.631Z" fill="#6320EF"/>
<path d="M442.672 384.631C447.814 388.793 454.305 391.963 460.843 391.035C467.636 390.074 473.539 384.855 480.38 384.951C480.07 390.584 478.356 396.046 475.396 400.832C471.794 406.643 466.525 411.19 461.335 415.64L449.496 425.774C447.814 427.215 445.814 428.752 443.64 428.399C442.535 428.144 441.52 427.591 440.704 426.799C436.054 422.828 434.086 416.585 432.403 410.678C430.975 405.619 429.594 400.56 428.214 395.485C427.405 392.966 426.93 390.35 426.801 387.705C426.801 383.767 427.817 375.65 429.801 372.72C434.562 375.986 438.164 381.013 442.672 384.631Z" fill="url(#paint17_linear)"/>
<path d="M595.948 268.39L607.596 283.07L499.297 512.719L482.411 506.843L595.948 268.39Z" fill="#6320EF"/>
<path d="M595.948 268.39L607.596 283.07L499.297 512.719L482.411 506.843L595.948 268.39Z" fill="url(#paint18_linear)"/>
<path d="M827.099 86.3203H608.167V412.871H827.099V86.3203Z" fill="url(#paint19_linear)"/>
<path d="M694.169 394.461H565.667V586.136H694.169V394.461Z" fill="#6320EF"/>
<path d="M694.169 394.461H565.667V586.136H694.169V394.461Z" fill="url(#paint20_linear)"/>
<path d="M450.242 284.767C449.353 289.778 445.766 294.373 446.56 299.399C447.02 302.249 448.75 305.595 446.766 307.676C446.045 308.289 445.237 308.791 444.37 309.165C440.958 311.086 439.339 315.072 437.784 318.77C436.228 322.468 434.054 326.278 430.293 327.399C427.277 328.295 424.04 327.127 421.294 325.606C414.741 321.812 409.516 316.06 406.341 309.144C403.166 302.228 402.197 294.488 403.567 286.992C405.154 279.612 409.265 272.456 415.898 268.998C427.039 263.139 453.321 267.494 450.242 284.767Z" fill="url(#paint21_linear)"/>
<path d="M454.241 282.398C452.654 284.703 449.845 286.848 447.258 285.792C444.671 284.735 443.909 281.63 441.45 280.989C438.688 280.301 436.292 283.31 433.514 283.455C432.028 283.325 430.566 282.996 429.166 282.478C427.24 282.181 425.271 282.38 423.442 283.057C421.614 283.735 419.985 284.868 418.707 286.352C416.191 289.352 414.21 292.77 412.851 296.454C411.636 295.401 410.708 294.053 410.152 292.538C409.597 291.023 409.433 289.39 409.677 287.793C407.456 288.504 405.477 289.829 403.965 291.617C402.453 293.405 401.468 295.586 401.123 297.911C400.71 301 401.123 304.939 398.362 306.395C397.332 306.842 396.21 307.029 395.092 306.94H383.745C379.666 306.94 374.715 306.443 373.001 302.713C371.731 299.928 373.001 296.694 374.239 293.924C379.793 281.918 386.475 270.215 395.886 260.962C405.297 251.709 417.755 245.097 430.896 244.825C447.226 244.569 464.89 267.253 454.241 282.398Z" fill="#606161"/>
<path d="M454.241 282.398C452.654 284.703 449.845 286.848 447.258 285.792C444.671 284.735 443.909 281.63 441.45 280.989C438.688 280.301 436.292 283.31 433.514 283.455C432.028 283.325 430.566 282.996 429.166 282.478C427.24 282.181 425.271 282.38 423.442 283.057C421.614 283.735 419.985 284.868 418.707 286.352C416.191 289.352 414.21 292.77 412.851 296.454C411.636 295.401 410.708 294.053 410.152 292.538C409.597 291.023 409.433 289.39 409.677 287.793C407.456 288.504 405.477 289.829 403.965 291.617C402.453 293.405 401.468 295.586 401.123 297.911C400.71 301 401.123 304.939 398.362 306.395C397.332 306.842 396.21 307.029 395.092 306.94H383.745C379.666 306.94 374.715 306.443 373.001 302.713C371.731 299.928 373.001 296.694 374.239 293.924C379.793 281.918 386.475 270.215 395.886 260.962C405.297 251.709 417.755 245.097 430.896 244.825C447.226 244.569 464.89 267.253 454.241 282.398Z" fill="url(#paint22_linear)"/>
<path d="M381.364 243.624C377.476 245.097 373.429 246.826 370.937 250.172C369.258 252.736 368.128 255.626 367.621 258.657C366.256 264.66 365.51 271.784 369.747 276.267C374.302 281.069 382.729 280.509 386.76 285.728C387.24 286.533 387.884 287.226 388.649 287.761C389.316 288.038 390.042 288.143 390.76 288.065C402.932 287.505 411.201 275.866 421.516 269.335C427.803 265.362 435.063 263.234 442.481 263.187C446.353 263.187 450.416 263.716 454.035 262.499C457.653 261.282 461.002 257.488 459.97 253.726C459.113 250.524 456.177 249.516 454.082 247.418C451.987 245.321 451.495 242.808 449.623 241.015C445.052 236.484 434.26 235.7 428.229 235.236C412.248 233.939 396.203 237.957 381.364 243.624Z" fill="#6320EF"/>
<path d="M460.066 255.567C459.819 257.181 459.123 258.691 458.058 259.922C456.993 261.152 455.603 262.051 454.051 262.515C450.321 263.716 446.354 263.203 442.513 263.203C435.089 263.227 427.82 265.351 421.532 269.335C411.169 275.85 402.932 287.489 390.76 288.049C390.042 288.17 389.305 288.064 388.649 287.745C387.898 287.196 387.248 286.519 386.729 285.744C382.698 280.477 374.318 281.037 369.732 276.283C365.51 271.848 366.256 264.708 367.621 258.673C367.991 256.836 368.522 255.036 369.208 253.294C369.613 252.141 370.197 251.06 370.938 250.092C373.429 246.778 377.461 245.033 381.301 243.592C396.188 237.893 412.201 233.891 428.198 235.076C434.229 235.508 445.021 236.324 449.607 240.839C451.464 242.712 452.083 245.337 454.067 247.338C456.05 249.339 459.098 250.54 459.907 253.598C460.134 254.228 460.189 254.908 460.066 255.567Z" fill="url(#paint23_linear)"/>
<path d="M392.125 344.705C395.87 341.503 401.456 344.705 405.154 347.907C409.51 351.567 413.507 355.641 417.089 360.073C430.912 377.683 433.911 402.177 447.718 419.867C453.67 418.266 457.352 412.535 460.907 407.492C464.462 402.449 469.477 397.246 475.603 397.79C482.728 398.415 486.712 406.243 489.108 413.047C489.862 414.685 490.132 416.509 489.886 418.298C489.343 419.922 488.378 421.371 487.093 422.492L464.652 445.705C460.113 450.412 455.13 455.311 448.623 456.255C443.467 456.696 438.344 455.094 434.34 451.789C430.38 448.479 426.864 444.664 423.881 440.438L400.98 410.854C394.283 402.161 387.443 393.244 384.094 382.758C380.746 372.272 381.539 359.753 388.855 351.605" fill="#6320EF"/>
<path d="M460.066 255.567C459.819 257.181 459.123 258.691 458.058 259.922C456.993 261.152 455.603 262.051 454.051 262.515C450.321 263.715 446.354 263.203 442.513 263.203C435.089 263.226 427.82 265.351 421.533 269.335C411.169 275.85 402.932 287.489 390.76 288.049C390.042 288.17 389.305 288.064 388.649 287.745C387.898 287.196 387.248 286.519 386.729 285.744C382.698 280.477 374.318 281.037 369.732 276.282C365.51 271.848 366.256 264.708 367.621 258.673C367.991 256.836 368.522 255.036 369.208 253.294C370.462 254.342 371.567 255.56 372.493 256.912C375.612 260.313 379.934 262.338 384.523 262.547C389.085 262.771 393.658 262.394 398.124 261.426C397.583 262.421 397.257 263.521 397.17 264.653C397.082 265.785 397.234 266.922 397.616 267.99C406.438 261.703 416.968 258.315 427.77 258.288C433.229 258.288 438.625 259.105 444.021 259.041C447.154 259.029 450.27 258.565 453.273 257.664C454.94 257.104 458.034 254.91 459.844 255.471C459.939 255.471 460.002 255.567 460.066 255.567Z" fill="url(#paint24_linear)"/>
<path d="M805.103 151.797H623.609V181.958H805.103V151.797Z" fill="#6320EF"/>
<path d="M279.207 158.553H60.2756V485.103H279.207V158.553Z" fill="#6320EF"/>
<path d="M279.207 158.473H61.1165V488.641H279.207V158.473Z" fill="url(#paint25_linear)"/>
<path opacity="0.45" d="M109.648 265.476C107.347 271.064 108.458 278.588 113.679 281.565C120.155 285.264 128.121 280.189 133.089 274.602C123.043 304.73 126.265 339.614 108.966 366.205C104.649 372.848 99.0153 379.108 97.8567 387.016C96.6982 394.925 103.364 404.354 110.902 402.049C113.203 401.344 115.203 399.647 117.599 399.407C122.567 398.895 126.392 404.674 131.375 404.642C133.66 404.642 135.739 403.362 137.929 402.705C144.087 400.864 150.515 403.778 156.752 405.299C162.989 406.819 171.13 405.971 173.622 400.016C175.32 404.818 181.557 405.715 186.604 405.827L201.871 406.163C205.172 406.163 208.775 406.163 211.393 404.162C214.472 401.713 215.075 397.118 214.123 393.276C213.171 389.434 210.949 386.072 209.362 382.486C203.141 369.31 204.077 354.006 202.046 339.55C199.046 318.066 189.349 296.15 195.999 275.514L207.457 289.49C208.19 290.504 209.112 291.363 210.171 292.019C211.074 292.406 212.047 292.598 213.028 292.585C214.009 292.571 214.977 292.351 215.869 291.939C223.471 288.994 226.978 279.676 226.057 271.528C225.137 263.379 220.646 256.127 216.313 249.115L206.172 232.994C205.454 231.645 204.465 230.462 203.268 229.52C201.433 228.492 199.348 228.009 197.253 228.128L162.497 226.879C148.499 226.367 141.595 228.624 133.74 239.35C126.979 248.651 114.187 254.478 109.648 265.476Z" fill="#6320EF"/>
</g>
<defs>
<linearGradient id="paint0_linear" x1="475.079" y1="359.849" x2="740.143" y2="472.706" gradientUnits="userSpaceOnUse">
<stop stop-color="#010101" stop-opacity="0"/>
<stop offset="0.95" stop-color="#010101"/>
</linearGradient>
<linearGradient id="paint1_linear" x1="19908.8" y1="42135.8" x2="56726.3" y2="28452.9" gradientUnits="userSpaceOnUse">
<stop stop-color="#010101" stop-opacity="0"/>
<stop offset="0.95" stop-color="#010101"/>
</linearGradient>
<linearGradient id="paint2_linear" x1="20982.2" y1="2863.11" x2="20984.5" y2="2914.45" gradientUnits="userSpaceOnUse">
<stop stop-color="#010101" stop-opacity="0"/>
<stop offset="0.95" stop-color="#010101"/>
</linearGradient>
<linearGradient id="paint3_linear" x1="378.968" y1="673.144" x2="381.196" y2="748.017" gradientUnits="userSpaceOnUse">
<stop stop-color="white" stop-opacity="0"/>
<stop offset="0.07" stop-color="white" stop-opacity="0.22"/>
<stop offset="0.16" stop-color="white" stop-opacity="0.45"/>
<stop offset="0.25" stop-color="white" stop-opacity="0.65"/>
<stop offset="0.33" stop-color="white" stop-opacity="0.8"/>
<stop offset="0.4" stop-color="white" stop-opacity="0.91"/>
<stop offset="0.46" stop-color="white" stop-opacity="0.98"/>
<stop offset="0.51" stop-color="white"/>
</linearGradient>
<linearGradient id="paint4_linear" x1="4078.24" y1="44072" x2="4235.36" y2="44072" gradientUnits="userSpaceOnUse">
<stop stop-color="white" stop-opacity="0"/>
<stop offset="0.07" stop-color="white" stop-opacity="0.22"/>
<stop offset="0.16" stop-color="white" stop-opacity="0.45"/>
<stop offset="0.25" stop-color="white" stop-opacity="0.65"/>
<stop offset="0.33" stop-color="white" stop-opacity="0.8"/>
<stop offset="0.4" stop-color="white" stop-opacity="0.91"/>
<stop offset="0.46" stop-color="white" stop-opacity="0.98"/>
<stop offset="0.51" stop-color="white"/>
</linearGradient>
<linearGradient id="paint5_linear" x1="12819.7" y1="24017.7" x2="10132.2" y2="25157.6" gradientUnits="userSpaceOnUse">
<stop stop-color="#010101" stop-opacity="0"/>
<stop offset="0.95" stop-color="#010101"/>
</linearGradient>
<linearGradient id="paint6_linear" x1="26269.1" y1="15711.7" x2="26283.4" y2="15216.1" gradientUnits="userSpaceOnUse">
<stop stop-color="#010101" stop-opacity="0"/>
<stop offset="0.95" stop-color="#010101"/>
</linearGradient>
<linearGradient id="paint7_linear" x1="11274.6" y1="25292.4" x2="10015.1" y2="25540.9" gradientUnits="userSpaceOnUse">
<stop stop-color="#010101" stop-opacity="0"/>
<stop offset="0.95" stop-color="#010101"/>
</linearGradient>
<linearGradient id="paint8_linear" x1="19458.9" y1="12183.7" x2="19563.6" y2="13394.1" gradientUnits="userSpaceOnUse">
<stop stop-color="#010101" stop-opacity="0"/>
<stop offset="0.95" stop-color="#010101"/>
</linearGradient>
<linearGradient id="paint9_linear" x1="16974.8" y1="52770.1" x2="13085" y2="51304.7" gradientUnits="userSpaceOnUse">
<stop stop-color="#010101" stop-opacity="0"/>
<stop offset="0.95" stop-color="#010101"/>
</linearGradient>
<linearGradient id="paint10_linear" x1="19719" y1="33040.8" x2="43054.1" y2="22106.2" gradientUnits="userSpaceOnUse">
<stop stop-color="white" stop-opacity="0"/>
<stop offset="0.07" stop-color="white" stop-opacity="0.22"/>
<stop offset="0.16" stop-color="white" stop-opacity="0.45"/>
<stop offset="0.25" stop-color="white" stop-opacity="0.65"/>
<stop offset="0.33" stop-color="white" stop-opacity="0.8"/>
<stop offset="0.4" stop-color="white" stop-opacity="0.91"/>
<stop offset="0.46" stop-color="white" stop-opacity="0.98"/>
<stop offset="0.51" stop-color="white"/>
</linearGradient>
<linearGradient id="paint11_linear" x1="381.698" y1="312.895" x2="418.089" y2="312.895" gradientUnits="userSpaceOnUse">
<stop stop-color="#E4C5D5"/>
<stop offset="0.42" stop-color="#E9D3CF"/>
<stop offset="1" stop-color="#EFE8CA"/>
</linearGradient>
<linearGradient id="paint12_linear" x1="4784.82" y1="8355.74" x2="5576.01" y2="8067.17" gradientUnits="userSpaceOnUse">
<stop stop-color="#010101" stop-opacity="0"/>
<stop offset="0.95" stop-color="#010101"/>
</linearGradient>
<linearGradient id="paint13_linear" x1="23734.4" y1="60451.2" x2="38478.8" y2="62749.9" gradientUnits="userSpaceOnUse">
<stop stop-color="#010101" stop-opacity="0"/>
<stop offset="0.95" stop-color="#010101"/>
</linearGradient>
<linearGradient id="paint14_linear" x1="14670.3" y1="16352.4" x2="15923.4" y2="16352.4" gradientUnits="userSpaceOnUse">
<stop stop-color="#E4C5D5"/>
<stop offset="0.42" stop-color="#E9D3CF"/>
<stop offset="1" stop-color="#EFE8CA"/>
</linearGradient>
<linearGradient id="paint15_linear" x1="55764.8" y1="54662.6" x2="33981.3" y2="54662.6" gradientUnits="userSpaceOnUse">
<stop stop-color="#010101" stop-opacity="0"/>
<stop offset="0.95" stop-color="#010101"/>
</linearGradient>
<linearGradient id="paint16_linear" x1="7651.18" y1="22711.2" x2="3096.23" y2="34920.8" gradientUnits="userSpaceOnUse">
<stop stop-color="#010101" stop-opacity="0"/>
<stop offset="0.95" stop-color="#010101"/>
</linearGradient>
<linearGradient id="paint17_linear" x1="16819.1" y1="13781.9" x2="14459" y2="16065.9" gradientUnits="userSpaceOnUse">
<stop stop-color="#010101" stop-opacity="0"/>
<stop offset="0.95" stop-color="#010101"/>
</linearGradient>
<linearGradient id="paint18_linear" x1="42489.6" y1="59417.9" x2="48486.9" y2="60022.7" gradientUnits="userSpaceOnUse">
<stop stop-color="#010101" stop-opacity="0"/>
<stop offset="0.95" stop-color="#010101"/>
</linearGradient>
<linearGradient id="paint19_linear" x1="100191" y1="100298" x2="96977.9" y2="-21497.7" gradientUnits="userSpaceOnUse">
<stop stop-color="white" stop-opacity="0"/>
<stop offset="0.07" stop-color="white" stop-opacity="0.22"/>
<stop offset="0.16" stop-color="white" stop-opacity="0.45"/>
<stop offset="0.25" stop-color="white" stop-opacity="0.65"/>
<stop offset="0.33" stop-color="white" stop-opacity="0.8"/>
<stop offset="0.4" stop-color="white" stop-opacity="0.91"/>
<stop offset="0.46" stop-color="white" stop-opacity="0.98"/>
<stop offset="0.51" stop-color="white"/>
</linearGradient>
<linearGradient id="paint20_linear" x1="48870.9" y1="79094.4" x2="66288.8" y2="21105.2" gradientUnits="userSpaceOnUse">
<stop stop-color="white" stop-opacity="0"/>
<stop offset="0.07" stop-color="white" stop-opacity="0.22"/>
<stop offset="0.16" stop-color="white" stop-opacity="0.45"/>
<stop offset="0.25" stop-color="white" stop-opacity="0.65"/>
<stop offset="0.33" stop-color="white" stop-opacity="0.8"/>
<stop offset="0.4" stop-color="white" stop-opacity="0.91"/>
<stop offset="0.46" stop-color="white" stop-opacity="0.98"/>
<stop offset="0.51" stop-color="white"/>
</linearGradient>
<linearGradient id="paint21_linear" x1="13324.7" y1="11701.1" x2="14749.7" y2="11701.1" gradientUnits="userSpaceOnUse">
<stop stop-color="#E4C5D5"/>
<stop offset="0.42" stop-color="#E9D3CF"/>
<stop offset="1" stop-color="#EFE8CA"/>
</linearGradient>
<linearGradient id="paint22_linear" x1="24540.2" y1="11907.6" x2="24050.2" y2="10682" gradientUnits="userSpaceOnUse">
<stop stop-color="#010101" stop-opacity="0"/>
<stop offset="0.95" stop-color="#010101"/>
</linearGradient>
<linearGradient id="paint23_linear" x1="26687.1" y1="8255.12" x2="26188" y2="12247.8" gradientUnits="userSpaceOnUse">
<stop stop-color="#010101" stop-opacity="0"/>
<stop offset="0.95" stop-color="#010101"/>
</linearGradient>
<linearGradient id="paint24_linear" x1="26572.7" y1="5452.67" x2="26453.6" y2="8043.29" gradientUnits="userSpaceOnUse">
<stop stop-color="#010101" stop-opacity="0"/>
<stop offset="0.95" stop-color="#010101"/>
</linearGradient>
<linearGradient id="paint25_linear" x1="10023.5" y1="110702" x2="91547.2" y2="-5422.02" gradientUnits="userSpaceOnUse">
<stop stop-color="white" stop-opacity="0"/>
<stop offset="0.07" stop-color="white" stop-opacity="0.22"/>
<stop offset="0.16" stop-color="white" stop-opacity="0.45"/>
<stop offset="0.25" stop-color="white" stop-opacity="0.65"/>
<stop offset="0.33" stop-color="white" stop-opacity="0.8"/>
<stop offset="0.4" stop-color="white" stop-opacity="0.91"/>
<stop offset="0.46" stop-color="white" stop-opacity="0.98"/>
<stop offset="0.51" stop-color="white"/>
</linearGradient>
<clipPath id="clip0">
<rect width="850" height="787" fill="white"/>
</clipPath>
</defs>
</svg>
