<svg width="18" height="18" viewBox="0 0 18 18" fill="none" xmlns="http://www.w3.org/2000/svg">
<g id="highlight_off_24px">
<path id="icon/action/highlight_off_24px" fill-rule="evenodd" clip-rule="evenodd" d="M9 1.5C4.8525 1.5 1.5 4.8525 1.5 9C1.5 13.1475 4.8525 16.5 9 16.5C13.1475 16.5 16.5 13.1475 16.5 9C16.5 4.8525 13.1475 1.5 9 1.5ZM10.9425 6L9 7.9425L7.0575 6L6 7.0575L7.9425 9L6 10.9425L7.0575 12L9 10.0575L10.9425 12L12 10.9425L10.0575 9L12 7.0575L10.9425 6ZM3 9C3 12.3075 5.6925 15 9 15C12.3075 15 15 12.3075 15 9C15 5.6925 12.3075 3 9 3C5.6925 3 3 5.6925 3 9Z" fill="#6320EF"/>
</g>
</svg>
