<svg width="27" height="26" viewBox="0 0 27 26" fill="none" xmlns="http://www.w3.org/2000/svg">
<g id="group_24px">
<path id="icon/social/group_24px" fill-rule="evenodd" clip-rule="evenodd" d="M10.2251 13C12.3544 13 14.0866 11.2991 14.0866 9.20829C14.0866 7.11746 12.3544 5.41663 10.2251 5.41663C8.09569 5.41663 6.36351 7.11746 6.36351 9.20829C6.36351 11.2991 8.09569 13 10.2251 13ZM2.50195 18.6875C2.50195 16.1633 7.64334 14.8958 10.2251 14.8958C12.8068 14.8958 17.9482 16.1633 17.9482 18.6875V20.5833H2.50195V18.6875ZM10.2251 17.0625C8.25016 17.0625 6.01045 17.7883 5.08368 18.4166H15.3665C14.4397 17.7883 12.2 17.0625 10.2251 17.0625ZM11.88 9.20829C11.88 8.30913 11.1408 7.58329 10.2251 7.58329C9.30934 7.58329 8.57012 8.30913 8.57012 9.20829C8.57012 10.1075 9.30934 10.8333 10.2251 10.8333C11.1408 10.8333 11.88 10.1075 11.88 9.20829ZM17.9923 14.9608C19.2722 15.8708 20.1548 17.0841 20.1548 18.6875V20.5833H24.568V18.6875C24.568 16.4991 20.7064 15.2533 17.9923 14.9608ZM20.7065 9.20829C20.7065 11.2991 18.9743 13 16.8449 13C16.2491 13 15.6975 12.8591 15.1899 12.6208C15.885 11.6566 16.2932 10.4758 16.2932 9.20829C16.2932 7.94079 15.885 6.75996 15.1899 5.79579C15.6975 5.55746 16.2491 5.41663 16.8449 5.41663C18.9743 5.41663 20.7065 7.11746 20.7065 9.20829Z" fill="black"/>
</g>
</svg>
