<svg width="30" height="30" viewBox="0 0 30 30" fill="none" xmlns="http://www.w3.org/2000/svg">
<g id="lock_24px">
<path id="icon/action/lock_24px" fill-rule="evenodd" clip-rule="evenodd" d="M21.25 10.625H22.5C23.875 10.625 25 11.75 25 13.125V25.625C25 27 23.875 28.125 22.5 28.125H7.5C6.125 28.125 5 27 5 25.625V13.125C5 11.75 6.125 10.625 7.5 10.625H8.75V8.125C8.75 4.675 11.55 1.875 15 1.875C18.45 1.875 21.25 4.675 21.25 8.125V10.625ZM15 4.375C12.925 4.375 11.25 6.05 11.25 8.125V10.625H18.75V8.125C18.75 6.05 17.075 4.375 15 4.375ZM7.5 25.625V13.125H22.5V25.625H7.5ZM17.5 19.375C17.5 20.75 16.375 21.875 15 21.875C13.625 21.875 12.5 20.75 12.5 19.375C12.5 18 13.625 16.875 15 16.875C16.375 16.875 17.5 18 17.5 19.375Z" fill="black"/>
</g>
</svg>
