<svg width="25" height="24" viewBox="0 0 25 24" fill="none" xmlns="http://www.w3.org/2000/svg">
<g id="power_settings_new_24px">
<path id="icon/action/power_settings_new_24px" fill-rule="evenodd" clip-rule="evenodd" d="M11.4338 3H13.4983V13H11.4338V3ZM17.0184 6.59L18.4842 5.17C20.4867 6.82 21.7564 9.26 21.7564 12C21.7564 16.97 17.5964 21 12.4661 21C7.33578 21 3.17578 16.97 3.17578 12C3.17578 9.26 4.44546 6.82 6.44804 5.17L7.90352 6.58C6.28288 7.86 5.2403 9.81 5.2403 12C5.2403 15.87 8.47127 19 12.4661 19C16.4609 19 19.6919 15.87 19.6919 12C19.6919 9.81 18.6493 7.86 17.0184 6.59Z" fill="black"/>
</g>
</svg>
