<svg width="26" height="26" viewBox="0 0 26 26" fill="none" xmlns="http://www.w3.org/2000/svg">
<g id="notifications_24px">
<path id="icon/social/notifications_24px" fill-rule="evenodd" clip-rule="evenodd" d="M19.5007 17.0625V11.6458C19.5007 8.32 17.7348 5.53583 14.6257 4.79917V4.0625C14.6257 3.16333 13.8998 2.4375 13.0007 2.4375C12.1015 2.4375 11.3757 3.16333 11.3757 4.0625V4.79917C8.27732 5.53583 6.50065 8.30917 6.50065 11.6458V17.0625L4.33398 19.2292V20.3125H21.6673V19.2292L19.5007 17.0625ZM13.0007 23.5625C14.1923 23.5625 15.1673 22.5875 15.1673 21.3958H10.834C10.834 22.5875 11.809 23.5625 13.0007 23.5625ZM8.66732 18.1458H17.334V11.6458C17.334 8.95917 15.6982 6.77083 13.0007 6.77083C10.3032 6.77083 8.66732 8.95917 8.66732 11.6458V18.1458Z" fill="#333333"/>
</g>
</svg>
