<svg width="31" height="30" viewBox="0 0 31 30" fill="none" xmlns="http://www.w3.org/2000/svg">
<g id="person_outline_24px">
<path id="icon/social/person_outline_24px" fill-rule="evenodd" clip-rule="evenodd" d="M15.0754 5C12.299 5 10.0503 7.2375 10.0503 10C10.0503 12.7625 12.299 15 15.0754 15C17.8518 15 20.1005 12.7625 20.1005 10C20.1005 7.2375 17.8518 5 15.0754 5ZM17.7136 10C17.7136 8.55 16.5327 7.375 15.0754 7.375C13.6181 7.375 12.4372 8.55 12.4372 10C12.4372 11.45 13.6181 12.625 15.0754 12.625C16.5327 12.625 17.7136 11.45 17.7136 10ZM22.7387 21.25C22.7387 20.45 18.8065 18.625 15.0754 18.625C11.3442 18.625 7.41208 20.45 7.41208 21.25V22.625H22.7387V21.25ZM5.02515 21.25C5.02515 17.925 11.7211 16.25 15.0754 16.25C18.4297 16.25 25.1256 17.925 25.1256 21.25V25H5.02515V21.25Z" fill="black"/>
</g>
</svg>
